<svg width="243" height="106" viewBox="0 0 243 106" fill="none" xmlns="http://www.w3.org/2000/svg"><rect width="243" height="106" fill="#0A0A0A"/><path d="M68.7932 16H61.1948V71.9038H68.7932V16Z" fill="white"/><path d="M95.485 65.899C88.3384 65.899 83.2043 60.2193 83.2043 53.1603C83.2043 46.3042 88.2973 40.6652 95.485 40.6652C102.508 40.6652 107.519 46.3448 107.519 53.1603C107.519 60.2193 102.508 65.899 95.485 65.899ZM95.485 33.7279C84.1079 33.7279 75.5649 42.4502 75.5649 53.1603C75.5649 64.0328 84.0669 72.8362 95.485 72.8362C106.698 72.8362 115.159 64.0328 115.159 53.1603C115.159 42.4502 106.739 33.7279 95.485 33.7279Z" fill="white"/><path d="M140.174 65.899C133.027 65.899 127.893 60.2193 127.893 53.1603C127.893 46.3042 132.986 40.6652 140.174 40.6652C147.197 40.6652 152.208 46.3448 152.208 53.1603C152.208 60.2193 147.197 65.899 140.174 65.899ZM140.174 33.7279C128.797 33.7279 120.254 42.4502 120.254 53.1603C120.254 64.0328 128.756 72.8362 140.174 72.8362C151.387 72.8362 159.848 64.0328 159.848 53.1603C159.848 42.4502 151.428 33.7279 140.174 33.7279Z" fill="white"/><path d="M14 53.1628C14 64.0352 22.5431 72.8387 33.9202 72.8387C38.5614 72.8387 42.6686 71.3376 45.9544 68.8224V71.5405C45.9544 80.2628 41.6418 83.346 33.7559 83.346L33.838 90.3644C43.6133 90.3644 53.5117 87.0378 53.5117 69.8366V34.0549H46.3241L45.9955 37.7061C42.7097 35.2314 38.5614 33.7303 33.9612 33.7303C22.5431 33.7303 14 42.4526 14 53.1628ZM33.9202 65.9014C26.7325 65.9014 21.6395 60.2218 21.6395 53.1628C21.6395 46.3067 26.7325 40.6676 33.9202 40.6676C40.9436 40.6676 45.9544 46.3472 45.9544 53.1628C45.9544 60.2623 40.9436 65.9014 33.9202 65.9014Z" fill="white"/><path d="M225.872 24.5869C223.888 24.5869 222.46 23.1586 222.46 21.1748C222.46 19.191 223.888 17.7627 225.872 17.7627C227.856 17.7627 229.284 19.191 229.284 21.1748C229.284 23.1586 227.856 24.5869 225.872 24.5869ZM228.491 72.2769H223.333V34.5851H228.491V72.2769Z" fill="url(#paint0_linear_1190_1036)"/><path d="M193.052 73.3086C182.895 73.3086 174.642 64.818 174.642 53.5502C174.642 42.2823 183.053 33.8711 193.052 33.8711C201.225 33.8711 205.51 38.4735 207.573 41.6475L208.208 41.2507C207.732 40.6159 207.573 39.9811 207.573 39.1876V34.5853H212.731V72.277H207.573V67.9921C207.573 67.0399 207.811 66.4051 208.208 65.8496L207.573 65.4528C205.589 68.5475 201.225 73.3086 193.052 73.3086ZM193.766 68.5475C202.177 68.5475 207.89 61.882 207.89 53.5502C207.89 45.377 202.177 38.6322 193.766 38.6322C185.672 38.6322 179.721 45.377 179.721 53.5502C179.721 61.9614 185.672 68.5475 193.766 68.5475Z" fill="url(#paint1_linear_1190_1036)"/><defs><linearGradient id="paint0_linear_1190_1036" x1="222.683" y1="17.7627" x2="236.459" y2="19.6937" gradientUnits="userSpaceOnUse"><stop stop-color="#FFF0B1"/><stop offset="0.35" stop-color="#FFDE4B"/><stop offset="0.5" stop-color="#FFD727"/><stop offset="0.7" stop-color="#F6C414"/><stop offset="0.9" stop-color="#CF8A11"/><stop offset="1" stop-color="#90640A"/></linearGradient><linearGradient id="paint1_linear_1190_1036" x1="175.89" y1="33.8711" x2="212.025" y2="72.9503" gradientUnits="userSpaceOnUse"><stop stop-color="#FFF0B1"/><stop offset="0.35" stop-color="#FFDE4B"/><stop offset="0.5" stop-color="#FFD727"/><stop offset="0.7" stop-color="#F6C414"/><stop offset="0.9" stop-color="#CF8A11"/><stop offset="1" stop-color="#90640A"/></linearGradient></defs></svg>